<svg width="322" height="64" viewBox="0 0 322 64" fill="none" xmlns="http://www.w3.org/2000/svg"><path d="M1.85 16.13V5.45c0-.78.54-1.48 1.49-1.48H8.2c.84 0 1.27.65 1.27 1.31 0 .65-.41 1.31-1.27 1.31H4.7v2.78h2.95c.91 0 1.37.64 1.37 1.29a1.3 1.3 0 01-1.37 1.33H4.7v4.14c0 .95-.6 1.48-1.42 1.48s-1.42-.53-1.42-1.48zm8.33-.04V4.4c0-.91.57-1.52 1.37-1.52.8 0 1.37.6 1.37 1.52v11.7c0 .92-.57 1.52-1.37 1.52-.8 0-1.37-.6-1.37-1.52zm12.29-2.73h-5.83c.19 1.35 1.3 1.97 2.58 1.97 1.4 0 2.38-1.1 3.1-1.1.59 0 1.12.6 1.12 1.18 0 1.18-2.43 2.32-4.47 2.32-3.07 0-5.13-2.24-5.13-5.27 0-2.77 2.02-5.3 4.9-5.3 2.97 0 4.93 2.7 4.93 4.98 0 .82-.36 1.22-1.2 1.22zm-5.89-1.83h4.35c-.15-1.2-.91-2.09-2.18-2.09-1.22 0-2.04.94-2.17 2.1zm7.66 3.82L27 12.2 24.7 9.6a1.65 1.65 0 01-.42-1c0-.71.7-1.32 1.4-1.32.44 0 .73.19 1.01.53l1.92 2.4 1.92-2.4c.28-.34.57-.53 1-.53.7 0 1.41.6 1.41 1.33 0 .34-.19.72-.42.99l-2.31 2.6 2.77 3.15c.2.23.38.63.38.93 0 .8-.55 1.33-1.35 1.33-.6 0-.85-.26-1.14-.6l-2.26-2.78-2.26 2.78c-.29.34-.53.6-1.14.6-.8 0-1.35-.53-1.35-1.33 0-.3.17-.7.38-.93zm9.86.74V8.8c0-.9.57-1.51 1.37-1.51.8 0 1.37.6 1.37 1.52v7.3c0 .9-.57 1.51-1.37 1.51-.8 0-1.37-.6-1.37-1.52zm1.37-12.92c.82 0 1.54.7 1.54 1.5 0 .86-.69 1.58-1.54 1.58a1.6 1.6 0 01-1.54-1.58c0-.77.72-1.5 1.54-1.5zm2.88 12.92V4.4c0-.91.57-1.52 1.37-1.52.8 0 1.37.6 1.37 1.52v3.72a3.96 3.96 0 012.6-.95c2.94 0 4.4 2.76 4.4 5.42 0 2.58-1.74 5.15-4.5 5.15-.93 0-2-.42-2.5-1.26-.17.73-.61 1.14-1.37 1.14-.8 0-1.37-.6-1.37-1.52zm2.74-3.72c0 1.33.64 2.85 2.14 2.85 1.43 0 2.13-1.48 2.13-2.76 0-1.29-.7-2.79-2.13-2.79-1.46 0-2.14 1.37-2.14 2.7zm16.2.99h-5.83c.2 1.35 1.32 1.97 2.59 1.97 1.4 0 2.37-1.1 3.1-1.1.58 0 1.12.6 1.12 1.18 0 1.18-2.44 2.32-4.47 2.32-3.08 0-5.13-2.24-5.13-5.27 0-2.77 2.02-5.3 4.9-5.3 2.97 0 4.92 2.7 4.92 4.98 0 .82-.36 1.22-1.2 1.22zm-5.88-1.83h4.35c-.15-1.2-.91-2.09-2.19-2.09-1.21 0-2.03.94-2.16 2.1zm8.02 4.56V4.4c0-.91.57-1.52 1.37-1.52.8 0 1.36.6 1.36 1.52v11.7c0 .92-.57 1.52-1.36 1.52-.8 0-1.37-.6-1.37-1.52zm9.4.04V5.34c0-.95.62-1.48 1.43-1.48.82 0 1.43.53 1.43 1.48v10.8c0 .94-.61 1.47-1.43 1.47-.81 0-1.42-.53-1.42-1.48zm4.04-5.4c0-3.95 2.66-6.99 6.54-6.99 1.38 0 4.08.46 4.08 2.13 0 .69-.47 1.27-1.18 1.27-.78 0-1.3-.66-2.9-.66-2.36 0-3.58 2-3.58 4.31 0 2.26 1.24 4.2 3.58 4.2 1.6 0 2.24-.8 3.02-.8.85 0 1.25.86 1.25 1.3 0 1.82-2.87 2.24-4.27 2.24-3.86 0-6.54-3.06-6.54-7zm14.43 5.4V6.6h-2.07c-.92 0-1.3-.66-1.3-1.3 0-.67.48-1.32 1.3-1.32h6.99c.82 0 1.29.65 1.29 1.31 0 .65-.38 1.31-1.3 1.31h-2.06v9.54c0 .95-.61 1.48-1.43 1.48-.81 0-1.42-.53-1.42-1.48zm16.36-8.97c2.89 0 4.9 2.53 4.9 5.3 0 2.85-1.96 5.27-4.9 5.27-2.95 0-4.9-2.42-4.9-5.27 0-2.77 2-5.3 4.9-5.3zm0 2.51c-1.5 0-2.17 1.48-2.17 2.8 0 1.3.69 2.75 2.17 2.75s2.16-1.44 2.16-2.76c0-1.3-.66-2.79-2.16-2.79zm6.05 10.45V8.8c0-.91.57-1.52 1.37-1.52.76 0 1.2.42 1.37 1.14.51-.84 1.58-1.26 2.6-1.26 2.95 0 4.4 2.76 4.4 5.42 0 2.58-1.74 5.15-4.5 5.15a3.9 3.9 0 01-2.5-.95v3.34c0 .91-.57 1.52-1.37 1.52-.8 0-1.37-.6-1.37-1.52zm2.74-7.75c0 1.33.64 2.85 2.14 2.85 1.43 0 2.13-1.48 2.13-2.76 0-1.29-.7-2.79-2.13-2.79-1.46 0-2.14 1.37-2.14 2.7zm15.05-3.23c0 .63-.47 1.22-1.12 1.22-.51 0-1.56-.8-2.45-.8-.5 0-.93.23-.93.76 0 1.27 4.75 1.08 4.75 4.2 0 1.82-1.54 3.2-3.9 3.2-1.54 0-3.82-.87-3.82-2.1 0-.42.42-1.22 1.18-1.22 1.07 0 1.54.93 2.83.93.84 0 1.08-.26 1.08-.78 0-1.25-4.75-1.06-4.75-4.2 0-1.9 1.54-3.19 3.71-3.19 1.35 0 3.42.63 3.42 1.98zm9.06-.25c0 .57-.4 1.31-1.05 1.31-.68 0-1.29-.53-2.16-.53-1.56 0-2.3 1.39-2.3 2.8 0 1.34.82 2.75 2.3 2.75.68 0 1.7-.57 2.03-.57.65 0 1.18.55 1.18 1.2 0 1.4-2.36 1.88-3.34 1.88-2.95 0-4.9-2.42-4.9-5.27 0-2.77 2-5.3 4.9-5.3 1.08 0 3.34.4 3.34 1.73zm.95 7.2V4.4c0-.91.57-1.52 1.37-1.52.8 0 1.36.6 1.36 1.52v3.72h.04c.57-.7 1.63-.95 2.49-.95 2.15 0 3.74 1.37 3.74 3.69v5.24c0 .92-.57 1.52-1.36 1.52-.8 0-1.37-.6-1.37-1.52v-4.77c0-1.27-.8-1.88-1.79-1.88-1.12 0-1.75.82-1.75 1.88v4.77c0 .92-.57 1.52-1.37 1.52-.8 0-1.36-.6-1.36-1.52zm19.9-7.03v6.77c0 .7 0 1.78-1.3 1.78-.8 0-1.13-.43-1.32-1.16a3.27 3.27 0 01-2.6 1.28c-2.57 0-4.53-2.19-4.53-5.27 0-3 2.02-5.3 4.53-5.3 1 0 2 .4 2.6 1.26a1.3 1.3 0 011.31-1.14c1.31 0 1.31 1.08 1.31 1.78zm-7 3.4c0 1.32.68 2.76 2.16 2.76 1.42 0 2.1-1.44 2.1-2.76 0-1.3-.66-2.79-2.1-2.79-1.5 0-2.17 1.48-2.17 2.8zm8.53 3.63V4.4c0-.91.57-1.52 1.36-1.52.8 0 1.37.6 1.37 1.52v11.7c0 .92-.57 1.52-1.37 1.52-.8 0-1.36-.6-1.36-1.52zm12.28-2.73h-5.83c.19 1.35 1.31 1.97 2.58 1.97 1.41 0 2.38-1.1 3.1-1.1.59 0 1.12.6 1.12 1.18 0 1.18-2.43 2.32-4.46 2.32-3.08 0-5.13-2.24-5.13-5.27 0-2.77 2.01-5.3 4.9-5.3 2.96 0 4.92 2.7 4.92 4.98 0 .82-.36 1.22-1.2 1.22zm-5.89-1.83h4.35c-.15-1.2-.9-2.09-2.18-2.09-1.22 0-2.03.94-2.17 2.1zm8.06 4.56V8.8c0-.9.57-1.51 1.37-1.51.7 0 1.16.38 1.25 1 .53-.74 1.35-1.12 2.64-1.12 2.15 0 3.75 1.37 3.75 3.69v5.24c0 .92-.57 1.52-1.37 1.52-.8 0-1.37-.6-1.37-1.52v-4.77c0-1.27-.8-1.88-1.78-1.88-1.13 0-1.75.82-1.75 1.88v4.77c0 .92-.57 1.52-1.37 1.52-.8 0-1.37-.6-1.37-1.52zm16.3 0V9.8h-.6c-.74 0-1.2-.46-1.2-1.2 0-.68.52-1.2 1.2-1.2h.6V5.76c0-.91.58-1.52 1.38-1.52.8 0 1.36.6 1.36 1.52v1.63h.78c.7 0 1.31.33 1.31 1.2 0 .85-.6 1.2-1.3 1.2h-.79v6.3c0 .92-.57 1.52-1.36 1.52-.8 0-1.37-.6-1.37-1.52zm4.93 0V8.8c0-.9.57-1.51 1.37-1.51.8 0 1.36.6 1.36 1.52v7.3c0 .9-.57 1.51-1.36 1.51-.8 0-1.37-.6-1.37-1.52zm1.37-12.92c.81 0 1.53.7 1.53 1.5 0 .86-.68 1.58-1.53 1.58a1.6 1.6 0 01-1.54-1.58c0-.77.72-1.5 1.54-1.5zm2.84 16.95V8.8c0-.91.57-1.52 1.37-1.52.8 0 1.37.6 1.37 1.52v11.32c0 .91-.57 1.52-1.37 1.52-.8 0-1.37-.6-1.37-1.52zm1.37-16.95c.81 0 1.54.7 1.54 1.5 0 .86-.69 1.58-1.54 1.58a1.6 1.6 0 01-1.54-1.58c0-.77.72-1.5 1.54-1.5zm12.23 1.22v11.7c0 .92-.57 1.52-1.37 1.52-.76 0-1.2-.41-1.37-1.14-.51.84-1.58 1.26-2.5 1.26-2.76 0-4.51-2.57-4.51-5.15 0-2.66 1.46-5.42 4.4-5.42.96 0 1.89.33 2.61.95V4.4c0-.91.57-1.52 1.37-1.52.8 0 1.37.6 1.37 1.52zm-2.74 7.98c0-1.33-.68-2.7-2.15-2.7-1.42 0-2.12 1.5-2.12 2.8 0 1.27.7 2.75 2.12 2.75 1.5 0 2.15-1.52 2.15-2.85zm12.34.99h-5.84c.2 1.35 1.31 1.97 2.59 1.97 1.4 0 2.37-1.1 3.1-1.1.58 0 1.12.6 1.12 1.18 0 1.18-2.44 2.32-4.47 2.32-3.08 0-5.13-2.24-5.13-5.27 0-2.77 2.01-5.3 4.9-5.3 2.97 0 4.92 2.7 4.92 4.98 0 .82-.36 1.22-1.2 1.22zm-5.9-1.83h4.36c-.16-1.2-.92-2.09-2.19-2.09-1.21 0-2.03.94-2.16 2.1zm8.06 4.56V8.8c0-.9.57-1.51 1.37-1.51.7 0 1.16.38 1.26 1 .53-.74 1.34-1.12 2.64-1.12 2.14 0 3.74 1.37 3.74 3.69v5.24c0 .92-.57 1.52-1.37 1.52-.8 0-1.37-.6-1.37-1.52v-4.77c0-1.27-.8-1.88-1.78-1.88-1.12 0-1.75.82-1.75 1.88v4.77c0 .92-.57 1.52-1.37 1.52-.8 0-1.37-.6-1.37-1.52zm17.44-6.95c0 .63-.47 1.22-1.12 1.22-.51 0-1.56-.8-2.45-.8-.5 0-.93.23-.93.76 0 1.27 4.75 1.08 4.75 4.2 0 1.82-1.54 3.2-3.9 3.2-1.54 0-3.82-.87-3.82-2.1 0-.42.42-1.22 1.18-1.22 1.06 0 1.54.93 2.83.93.84 0 1.09-.26 1.09-.78 0-1.25-4.75-1.06-4.75-4.2 0-1.9 1.53-3.19 3.7-3.19 1.35 0 3.42.63 3.42 1.98zm15.64-4.75v11.7c0 .92-.57 1.52-1.36 1.52-.76 0-1.2-.41-1.37-1.14-.52.84-1.58 1.26-2.51 1.26-2.76 0-4.5-2.57-4.5-5.15 0-2.66 1.46-5.42 4.4-5.42.95 0 1.88.33 2.6.95V4.4c0-.91.58-1.52 1.38-1.52.8 0 1.36.6 1.36 1.52zm-2.73 7.98c0-1.33-.69-2.7-2.15-2.7-1.42 0-2.13 1.5-2.13 2.8 0 1.27.7 2.75 2.13 2.75 1.5 0 2.15-1.52 2.15-2.85zm12.33.99h-5.83c.19 1.35 1.31 1.97 2.58 1.97 1.41 0 2.38-1.1 3.1-1.1.59 0 1.12.6 1.12 1.18 0 1.18-2.43 2.32-4.46 2.32-3.08 0-5.13-2.24-5.13-5.27 0-2.77 2.01-5.3 4.9-5.3 2.96 0 4.92 2.7 4.92 4.98 0 .82-.36 1.22-1.2 1.22zm-5.89-1.83h4.35c-.15-1.2-.9-2.09-2.18-2.09-1.22 0-2.03.94-2.17 2.1zM3.91 40.47l-2.76-7.06a2.01 2.01 0 01-.17-.8c0-.88.69-1.33 1.43-1.33.76 0 1.08.55 1.21.97l1.75 5.4h.04l1.75-5.4c.13-.42.45-.97 1.21-.97.74 0 1.43.45 1.43 1.33 0 .24-.04.45-.17.8l-2.76 7.06c-.26.7-.55 1.14-1.48 1.14-.93 0-1.22-.43-1.48-1.14zm14.68-3.11h-5.83c.19 1.35 1.31 1.97 2.58 1.97 1.4 0 2.38-1.1 3.1-1.1.59 0 1.12.6 1.12 1.18 0 1.18-2.43 2.32-4.46 2.32-3.08 0-5.13-2.24-5.13-5.26 0-2.78 2.01-5.3 4.9-5.3 2.96 0 4.92 2.7 4.92 4.97 0 .82-.36 1.22-1.2 1.22zm-5.89-1.83h4.35c-.15-1.2-.9-2.09-2.18-2.09-1.22 0-2.03.94-2.17 2.1zm8.02 4.56v-7.44c0-.92.72-1.37 1.4-1.37.73 0 1.34.26 1.34 1.14h.04c.5-.76 1.06-1.14 1.92-1.14.66 0 1.33.47 1.33 1.46 0 .9-.82.95-1.64 1.33-.82.38-1.65.74-1.65 1.83v4.2c0 .9-.57 1.51-1.37 1.51-.8 0-1.37-.6-1.37-1.52zm6.37 0V28.4c0-.91.57-1.52 1.37-1.52.8 0 1.36.6 1.36 1.52v6.38l3-2.9c.44-.42.88-.6 1.24-.6.68 0 1.16.64 1.16 1.24 0 .4-.13.73-.53 1.09l-2.43 2.16 3.2 3.76c.25.29.35.61.35.92 0 .72-.57 1.29-1.3 1.29-.49 0-.87-.3-1.3-.84l-3.35-4.12h-.04v3.32c0 .92-.57 1.52-1.36 1.52-.8 0-1.37-.6-1.37-1.52zm9.46 0v-7.3c0-.9.57-1.51 1.37-1.51.8 0 1.37.6 1.37 1.52v7.3c0 .9-.57 1.51-1.37 1.51-.8 0-1.37-.6-1.37-1.52zm1.37-12.92c.81 0 1.54.7 1.54 1.5 0 .86-.69 1.58-1.54 1.58a1.6 1.6 0 01-1.54-1.57c0-.78.72-1.5 1.54-1.5zm10.92 10.19H43c.2 1.35 1.31 1.97 2.59 1.97 1.4 0 2.37-1.1 3.1-1.1.58 0 1.12.6 1.12 1.18 0 1.18-2.44 2.32-4.47 2.32-3.08 0-5.13-2.24-5.13-5.26 0-2.78 2.01-5.3 4.9-5.3 2.97 0 4.92 2.7 4.92 4.97 0 .82-.36 1.22-1.2 1.22zm-5.9-1.83h4.36c-.15-1.2-.91-2.09-2.19-2.09-1.21 0-2.03.94-2.16 2.1zm7.74 4.3l4.3-6.04H51.8c-.68 0-1.23-.44-1.23-1.2s.55-1.2 1.23-1.2h6.22c.24 0 .89.12.89.86 0 .36-.08.53-.29.81l-4.3 6.05h3.6c.68 0 1.24.43 1.24 1.2 0 .75-.56 1.19-1.24 1.19h-6.36c-.61 0-1.13-.3-1.13-.93 0-.3.16-.59.25-.74zm9.43.26v-7.3c0-.9.57-1.51 1.37-1.51.8 0 1.37.6 1.37 1.52v7.3c0 .9-.57 1.51-1.37 1.51-.8 0-1.37-.6-1.37-1.52zm1.37-12.92c.82 0 1.54.7 1.54 1.5 0 .86-.68 1.58-1.54 1.58a1.6 1.6 0 01-1.54-1.57c0-.78.73-1.5 1.54-1.5zm2.88 12.92v-7.3c0-.9.57-1.51 1.37-1.51.7 0 1.16.38 1.26 1 .53-.74 1.34-1.12 2.64-1.12 2.14 0 3.74 1.37 3.74 3.69v5.24c0 .92-.57 1.52-1.37 1.52-.8 0-1.37-.6-1.37-1.52v-4.77c0-1.27-.8-1.88-1.78-1.88-1.12 0-1.75.82-1.75 1.89v4.76c0 .92-.57 1.52-1.37 1.52-.8 0-1.37-.6-1.37-1.52zm19.91-7.3v7.91c0 3.29-2.15 4.94-5.26 4.94-1.12 0-4.32-.55-4.32-2.05 0-.51.57-1.2 1.1-1.2.88 0 1.85.86 3.43.86 1.33 0 2.31-.78 2.31-2.17v-.64h-.03c-.57.83-1.5 1.29-2.76 1.29-2.87 0-4.22-2.53-4.22-5.25 0-2.75 1.75-5.32 4.5-5.32.94 0 2 .42 2.51 1.26.17-.72.61-1.14 1.37-1.14.8 0 1.37.6 1.37 1.52zm-2.74 3.73c0-1.33-.64-2.85-2.14-2.85-1.43 0-2.13 1.48-2.13 2.76 0 1.46.7 2.79 2.13 2.79 1.46 0 2.14-1.37 2.14-2.7zm12.34.84h-5.83c.19 1.35 1.3 1.97 2.58 1.97 1.4 0 2.37-1.1 3.1-1.1.59 0 1.12.6 1.12 1.18 0 1.18-2.43 2.32-4.47 2.32-3.08 0-5.13-2.24-5.13-5.26 0-2.78 2.02-5.3 4.9-5.3 2.97 0 4.93 2.7 4.93 4.97 0 .82-.37 1.22-1.2 1.22zm-5.9-1.83h4.36c-.15-1.2-.91-2.09-2.19-2.09-1.21 0-2.03.94-2.16 2.1zm8.07 4.56v-7.3c0-.9.57-1.51 1.36-1.51.7 0 1.16.38 1.26 1 .53-.74 1.35-1.12 2.64-1.12 2.15 0 3.74 1.37 3.74 3.69v5.24c0 .92-.57 1.52-1.37 1.52-.8 0-1.36-.6-1.36-1.52v-4.77c0-1.27-.8-1.88-1.79-1.88-1.12 0-1.75.82-1.75 1.89v4.76c0 .92-.57 1.52-1.37 1.52-.8 0-1.36-.6-1.36-1.52zm12.57-3.76v-1.9c0-.68.76-.8 1.54-1 .76-.21 1.52-.52 1.52-1.62 0-.84-.78-1.44-1.58-1.44-1.6 0-1.84 1.88-3.06 1.88-.68 0-1.16-.54-1.16-1.37 0-2 2.51-3.14 4.22-3.14 2.45 0 4.54 1.52 4.54 4.07 0 2.1-1.33 3.34-3.29 3.84v.68c0 .76-.57 1.31-1.36 1.31-.86 0-1.37-.55-1.37-1.3zm1.37 5.4a1.48 1.48 0 110-2.97 1.48 1.48 0 010 2.97z" fill="#000"/><path d="M2.5 55.23c0 1.63.7 3.43 2.62 3.43 1.92 0 2.61-1.8 2.61-3.43 0-1.63-.7-3.43-2.61-3.43-1.92 0-2.62 1.8-2.62 3.43zm-1.13 0c0-2.22 1.31-4.35 3.75-4.35 2.43 0 3.74 2.13 3.74 4.35 0 2.22-1.3 4.34-3.74 4.34-2.44 0-3.75-2.12-3.75-4.34zM9.92 59v-5.4c0-.35.2-.57.53-.57.32 0 .53.22.53.57v.25l.02.02c.47-.6 1.13-.84 1.77-.84.98 0 2.22.63 2.22 2.43V59c0 .35-.2.56-.53.56s-.53-.21-.53-.56v-3.48c0-1.12-.78-1.57-1.48-1.57s-1.47.45-1.47 1.57V59c0 .35-.2.56-.53.56-.32 0-.53-.21-.53-.56zm7.46-.42h2.86c.35 0 .53.17.53.45 0 .3-.18.46-.53.46h-3.8c-.4 0-.52-.2-.52-.37 0-.17.06-.31.22-.54l3.05-4.56h-2.62c-.35 0-.53-.17-.53-.46 0-.29.18-.45.53-.45h3.55c.41 0 .52.2.52.37 0 .17-.06.31-.22.54l-3.08 4.53.04.03zm8.98-1.87h-3.98c0 1.09.7 1.94 1.89 1.94 1.4 0 1.76-.86 2.16-.86.19 0 .38.16.38.46 0 .52-1.3 1.31-2.55 1.31-2.04 0-2.93-1.57-2.93-3.26 0-1.73 1.08-3.27 2.87-3.27 1.74 0 2.74 1.58 2.74 3.11 0 .37-.13.57-.58.57zm-3.98-.8h3.5c0-.9-.52-1.96-1.68-1.96-1.31-.05-1.78 1-1.82 1.96zM32 50.8V59c0 .36-.2.57-.53.57-.32 0-.52-.21-.52-.56V50.8c0-.35.2-.56.52-.56.33 0 .53.21.53.56zm6.68 2.76v5.5c0 .37-.3.51-.5.51a.48.48 0 01-.49-.51v-.45h-.02c-.46.65-1.06.96-1.74.96-1.8 0-2.81-1.57-2.81-3.26 0-1.7 1-3.27 2.8-3.27.74 0 1.26.32 1.75.86h.02v-.34c0-.37.28-.52.5-.52.2 0 .49.15.49.52zm-4.5 2.75c0 1.08.45 2.35 1.75 2.35s1.75-1.27 1.75-2.35-.46-2.35-1.75-2.35c-1.3 0-1.75 1.27-1.75 2.35zm6.88 0c0 1.08.46 2.35 1.75 2.35 1.3 0 1.75-1.27 1.75-2.35s-.45-2.35-1.75-2.35-1.75 1.27-1.75 2.35zm-.95 5.22V53.6c0-.35.2-.57.53-.57.32 0 .53.22.53.57v.31h.02c.3-.58.87-.88 1.7-.88 1.73 0 2.73 1.58 2.73 3.27s-1 3.26-2.72 3.26c-.84 0-1.43-.47-1.7-.86h-.03v2.82c0 .35-.2.56-.53.56-.32 0-.53-.21-.53-.56zm6.96-8.41v-1.38c0-.35.2-.57.53-.57.32 0 .52.22.52.57v1.38h.44c.34 0 .52.16.52.45 0 .29-.18.46-.52.46h-.44V59c0 .35-.2.56-.52.56-.33 0-.53-.21-.53-.56v-4.98h-.43c-.35 0-.53-.17-.53-.46 0-.29.18-.45.53-.45h.43zm2.5 3.19c0-1.7 1.01-3.27 2.81-3.27s2.8 1.58 2.8 3.27-1 3.26-2.8 3.26c-1.8 0-2.8-1.57-2.8-3.26zm1.06 0c0 1.08.45 2.35 1.75 2.35s1.75-1.27 1.75-2.35-.45-2.35-1.75-2.35-1.75 1.27-1.75 2.35zm6.67 0c0 1.08.46 2.35 1.75 2.35 1.3 0 1.76-1.27 1.76-2.35s-.46-2.35-1.76-2.35-1.75 1.27-1.75 2.35zm-.95 5.22V53.6c0-.35.2-.57.53-.57s.53.22.53.57v.31h.02c.3-.58.87-.88 1.7-.88 1.74 0 2.73 1.58 2.73 3.27s-1 3.26-2.72 3.26c-.84 0-1.43-.47-1.7-.86h-.03v2.82c0 .35-.2.56-.53.56-.32 0-.53-.21-.53-.56zm6.48-6.69c0-1.17 1.1-1.8 2.17-1.8.88 0 2.13.47 2.13 1.13 0 .23-.16.43-.48.43-.46 0-.64-.64-1.65-.64-.6 0-1.11.26-1.11.8 0 1.12 3.4 1 3.4 2.84 0 1.34-1.14 1.97-2.32 1.97-1.35 0-2.4-.67-2.4-1.21 0-.29.2-.48.43-.48.47 0 .85.78 2 .78.77 0 1.24-.43 1.24-.86 0-1.25-3.41-1.18-3.41-2.96zM68 60.11l.67-1.32c.12-.23.25-.44.56-.44.25 0 .48.19.48.45 0 .14-.03.26-.13.45l-.67 1.32c-.12.23-.25.44-.57.44-.25 0-.48-.19-.48-.45 0-.14.04-.26.14-.45zm6.63-7v-1.37c0-.35.2-.57.53-.57.32 0 .53.22.53.57v1.38h.43c.35 0 .53.16.53.45 0 .29-.18.46-.53.46h-.43V59c0 .35-.2.56-.53.56-.32 0-.53-.21-.53-.56v-4.98h-.43c-.35 0-.53-.17-.53-.46 0-.29.18-.45.53-.45h.43zm8.06.45v5.5c0 .37-.29.51-.49.51a.48.48 0 01-.5-.51v-.45h-.02c-.45.65-1.05.96-1.74.96-1.8 0-2.8-1.57-2.8-3.26 0-1.7 1-3.27 2.8-3.27.74 0 1.25.32 1.74.86h.03v-.34c0-.37.27-.52.5-.52.2 0 .48.15.48.52zm-4.5 2.75c0 1.08.46 2.35 1.75 2.35 1.3 0 1.76-1.27 1.76-2.35s-.46-2.35-1.76-2.35-1.75 1.27-1.75 2.35zm6.89 0c0 1.08.45 2.35 1.75 2.35s1.75-1.27 1.75-2.35-.46-2.35-1.75-2.35c-1.3 0-1.75 1.27-1.75 2.35zm-.95 2.7V50.8c0-.35.2-.56.53-.56.32 0 .52.21.52.56v3.1h.03c.27-.39.86-.86 1.7-.86 1.73 0 2.73 1.58 2.73 3.27s-1 3.26-2.73 3.26c-.84 0-1.4-.3-1.7-.87h-.03v.3c0 .36-.2.57-.52.57-.33 0-.53-.21-.53-.56zm7.67-8.21V59c0 .36-.2.57-.52.57-.33 0-.53-.21-.53-.56V50.8c0-.35.2-.56.53-.56.32 0 .52.21.52.56zm6.04 5.92h-3.97c0 1.09.7 1.94 1.88 1.94 1.4 0 1.77-.86 2.16-.86.2 0 .39.16.39.46 0 .52-1.31 1.31-2.56 1.31-2.04 0-2.93-1.57-2.93-3.26 0-1.73 1.08-3.27 2.87-3.27 1.74 0 2.75 1.58 2.75 3.11 0 .37-.13.57-.59.57zm-3.97-.8h3.5c0-.9-.52-1.96-1.69-1.96-1.3-.05-1.77 1-1.81 1.96zm5.9-2.8v-1.38c0-.35.2-.57.53-.57.32 0 .52.22.52.57v1.38h.44c.34 0 .52.16.52.45 0 .29-.18.46-.52.46h-.44V59c0 .35-.2.56-.52.56-.33 0-.53-.21-.53-.56v-4.98h-.43c-.35 0-.53-.17-.53-.46 0-.29.18-.45.53-.45h.43zm2.64 1.72c0-1.17 1.1-1.8 2.17-1.8.87 0 2.12.47 2.12 1.13 0 .23-.15.43-.48.43-.45 0-.64-.64-1.64-.64-.6 0-1.12.26-1.12.8 0 1.12 3.4 1 3.4 2.84 0 1.34-1.13 1.97-2.32 1.97-1.34 0-2.4-.67-2.4-1.21 0-.29.2-.48.43-.48.47 0 .86.78 2 .78.78 0 1.24-.43 1.24-.86 0-1.25-3.4-1.18-3.4-2.96zm13.11 1.88h-3.97c0 1.09.7 1.94 1.89 1.94 1.4 0 1.76-.86 2.16-.86.19 0 .38.16.38.46 0 .52-1.3 1.31-2.55 1.31-2.05 0-2.93-1.57-2.93-3.26 0-1.73 1.08-3.27 2.86-3.27 1.74 0 2.75 1.58 2.75 3.11 0 .37-.13.57-.59.57zm-3.97-.8h3.5c0-.9-.52-1.96-1.69-1.96-1.3-.05-1.77 1-1.8 1.96zm5.57 3.09v-5.4c0-.35.2-.57.52-.57.33 0 .53.22.53.57v.25l.03.02c.46-.6 1.12-.84 1.76-.84.98 0 2.22.63 2.22 2.43V59c0 .35-.2.56-.53.56-.32 0-.53-.21-.53-.56v-3.48c0-1.12-.78-1.57-1.47-1.57-.7 0-1.48.45-1.48 1.57V59c0 .35-.2.56-.53.56-.32 0-.52-.21-.52-.56zm10.45-2.7c0 1.08.45 2.35 1.75 2.35s1.75-1.27 1.75-2.35-.45-2.35-1.75-2.35-1.75 1.27-1.75 2.35zm-.95 5.22V53.6c0-.35.2-.57.53-.57.32 0 .53.22.53.57v.31h.02c.3-.58.86-.88 1.7-.88 1.73 0 2.73 1.58 2.73 3.27s-1 3.26-2.72 3.26c-.84 0-1.43-.47-1.7-.86h-.03v2.82c0 .35-.2.56-.53.56s-.53-.21-.53-.56zm6.62-2.52v-5.4c0-.35.2-.57.53-.57.32 0 .53.22.53.57v.54h.02c.24-.5.83-1.1 1.44-1.1.37 0 .59.23.59.53 0 .3-.22.5-.66.58-.63.1-1.4.58-1.4 1.81v3.04c0 .35-.2.56-.52.56s-.53-.21-.53-.56zm4.84-5.4V59c0 .35-.2.56-.53.56-.32 0-.52-.21-.52-.56v-5.4c0-.35.2-.57.52-.57.33 0 .53.22.53.57zm-1.17-2.08a.65.65 0 111.3 0c0 .36-.3.65-.66.65a.65.65 0 01-.64-.65zm2.57 7.48v-5.4c0-.35.2-.57.52-.57.33 0 .53.22.53.57v.25l.03.02c.46-.6 1.12-.84 1.76-.84.98 0 2.22.63 2.22 2.43V59c0 .35-.2.56-.53.56-.32 0-.53-.21-.53-.56v-3.48c0-1.12-.78-1.57-1.47-1.57-.7 0-1.48.45-1.48 1.57V59c0 .35-.2.56-.53.56-.32 0-.52-.21-.52-.56zm6.79-5.9v-1.37c0-.35.2-.57.53-.57.32 0 .52.22.52.57v1.38h.44c.34 0 .52.16.52.45 0 .29-.18.46-.52.46h-.44V59c0 .35-.2.56-.52.56-.33 0-.53-.21-.53-.56v-4.98h-.43c-.35 0-.53-.17-.53-.46 0-.29.18-.45.53-.45h.43zm7.42 3.6h-3.97c0 1.1.7 1.95 1.89 1.95 1.4 0 1.76-.86 2.16-.86.19 0 .38.16.38.46 0 .52-1.3 1.31-2.56 1.31-2.04 0-2.92-1.57-2.92-3.26 0-1.73 1.07-3.27 2.86-3.27 1.74 0 2.75 1.58 2.75 3.11 0 .37-.13.57-.59.57zm-3.97-.79h3.5c0-.9-.52-1.96-1.69-1.96-1.3-.05-1.77 1-1.8 1.96zm5.56 3.09v-5.4c0-.35.2-.57.53-.57s.53.22.53.57v.54h.02c.24-.5.83-1.1 1.44-1.1.38 0 .6.23.6.53 0 .3-.22.5-.67.58-.62.1-1.39.58-1.39 1.81v3.04c0 .35-.2.56-.53.56-.32 0-.53-.21-.53-.56zm3.65-4.17c0-1.17 1.1-1.8 2.17-1.8.87 0 2.12.47 2.12 1.13 0 .23-.16.43-.48.43-.46 0-.63-.64-1.64-.64-.6 0-1.12.26-1.12.8 0 1.12 3.4 1 3.4 2.84 0 1.34-1.13 1.97-2.32 1.97-1.34 0-2.4-.67-2.4-1.21 0-.29.2-.48.43-.48.47 0 .86.78 2 .78.78 0 1.24-.43 1.24-.86 0-1.25-3.4-1.18-3.4-2.96zm9.47 3.75h2.87c.34 0 .52.17.52.45 0 .3-.18.46-.53.46h-3.8c-.4 0-.51-.2-.51-.37 0-.17.05-.31.21-.54l3.05-4.56h-2.62c-.34 0-.53-.17-.53-.46 0-.29.19-.45.53-.45h3.56c.4 0 .51.2.51.37 0 .17-.06.31-.21.54l-3.09 4.53.04.03zm5.39-4.98V59c0 .35-.2.56-.53.56-.32 0-.53-.21-.53-.56v-5.4c0-.35.2-.57.53-.57.32 0 .53.22.53.57zm-1.18-2.08c0-.36.3-.65.65-.65.36 0 .65.3.65.65 0 .36-.29.65-.65.65a.65.65 0 01-.65-.65zm3.63 2.08v7.92c0 .35-.2.56-.53.56-.32 0-.53-.21-.53-.56V53.6c0-.35.2-.57.53-.57.32 0 .53.22.53.57zm-1.18-2.08c0-.36.29-.65.65-.65.36 0 .65.3.65.65 0 .36-.29.65-.65.65a.65.65 0 01-.65-.65zm2.57 7.48v-5.4c0-.35.2-.57.53-.57.32 0 .53.22.53.57v.25l.02.02c.47-.6 1.13-.84 1.77-.84.98 0 2.22.63 2.22 2.43V59c0 .35-.2.56-.53.56s-.53-.21-.53-.56v-3.48c0-1.12-.78-1.57-1.48-1.57s-1.47.45-1.47 1.57V59c0 .35-.2.56-.53.56-.32 0-.53-.21-.53-.56zm9.46 0V50.8c0-.35.2-.56.53-.56.32 0 .52.21.52.56v4.5l2.3-1.93c.22-.2.43-.33.6-.33.28 0 .45.2.45.47 0 .16-.06.3-.26.46l-2.4 1.9 2.78 2.74c.2.2.25.34.25.54 0 .24-.21.42-.44.42-.25 0-.36-.07-.61-.32l-2.67-2.79v2.55c0 .35-.2.56-.52.56-.33 0-.53-.21-.53-.56zm6.6-8.21V59c0 .36-.2.57-.52.57s-.53-.21-.53-.56V50.8c0-.35.2-.56.53-.56.32 0 .53.21.53.56zm6.68 2.76v5.5c0 .37-.29.51-.49.51a.48.48 0 01-.5-.51v-.45h-.02c-.45.65-1.05.96-1.74.96-1.8 0-2.8-1.57-2.8-3.26 0-1.7 1-3.27 2.8-3.27.74 0 1.25.32 1.74.86h.03v-.34c0-.37.27-.52.49-.52.2 0 .5.15.5.52zm-4.5 2.75c0 1.08.46 2.35 1.75 2.35 1.3 0 1.76-1.27 1.76-2.35s-.46-2.35-1.76-2.35-1.75 1.27-1.75 2.35zm11.17-2.75v5.5c0 .37-.29.51-.5.51a.48.48 0 01-.48-.51v-.45h-.03c-.45.65-1.05.96-1.74.96-1.8 0-2.8-1.57-2.8-3.26 0-1.7 1-3.27 2.8-3.27.73 0 1.25.32 1.74.86h.03v-.34c0-.37.27-.52.49-.52.2 0 .49.15.49.52zm-4.5 2.75c0 1.08.46 2.35 1.75 2.35 1.3 0 1.75-1.27 1.75-2.35s-.45-2.35-1.75-2.35-1.75 1.27-1.75 2.35zm5.89 2.7v-5.4c0-.35.2-.57.53-.57.32 0 .52.22.52.57v.54h.03c.24-.5.83-1.1 1.44-1.1.37 0 .59.23.59.53 0 .3-.22.5-.66.58-.63.1-1.4.58-1.4 1.81v3.04c0 .35-.2.56-.52.56-.33 0-.53-.21-.53-.56zm8.1.1l-1.84-5.14c-.08-.2-.11-.31-.11-.43 0-.32.22-.5.48-.5.34 0 .47.17.55.41l1.45 4.42h.03l1.45-4.42c.08-.24.2-.4.55-.4.25 0 .48.17.48.49 0 .12-.04.24-.1.43l-1.84 5.15c-.11.3-.22.45-.56.45-.33 0-.44-.14-.55-.45zm3.52-2.8c0-1.7 1-3.27 2.8-3.27 1.8 0 2.81 1.58 2.81 3.27s-1 3.26-2.8 3.26c-1.8 0-2.81-1.57-2.81-3.26zm1.05 0c0 1.08.46 2.35 1.75 2.35 1.3 0 1.76-1.27 1.76-2.35s-.46-2.35-1.75-2.35c-1.3 0-1.76 1.27-1.76 2.35zm5.4 0c0-1.7 1.01-3.27 2.81-3.27s2.81 1.58 2.81 3.27-1 3.26-2.8 3.26c-1.8 0-2.82-1.57-2.82-3.26zm1.06 0c0 1.08.46 2.35 1.75 2.35 1.3 0 1.75-1.27 1.75-2.35s-.45-2.35-1.75-2.35-1.75 1.27-1.75 2.35zm5.68 2.7v-5.4c0-.35.2-.57.53-.57.32 0 .52.22.52.57v.54h.03c.24-.5.82-1.1 1.44-1.1.37 0 .58.23.58.53 0 .3-.21.5-.66.58-.62.1-1.39.58-1.39 1.81v3.04c0 .35-.2.56-.53.56-.32 0-.52-.21-.52-.56zm12.01-5.45v5.48c0 1.9-1.15 3.05-2.88 3.05-1.09 0-2.44-.62-2.44-1.16 0-.22.1-.5.44-.5.48 0 .95.75 2.09.75 1.34 0 1.74-1.06 1.74-1.97v-.55h-.03c-.32.55-.9.91-1.62.91-1.8 0-2.8-1.57-2.8-3.26 0-1.7 1-3.27 2.8-3.27.69 0 1.35.42 1.62.8h.03v-.28c0-.37.27-.52.56-.52.2 0 .5.15.5.52zm-4.45 2.75c0 1.08.46 2.35 1.75 2.35 1.3 0 1.76-1.27 1.76-2.35s-.46-2.35-1.76-2.35-1.75 1.27-1.75 2.35zm10.53.4h-3.97c0 1.1.7 1.95 1.89 1.95 1.4 0 1.76-.86 2.16-.86.19 0 .38.16.38.46 0 .52-1.3 1.31-2.56 1.31-2.04 0-2.92-1.57-2.92-3.26 0-1.73 1.08-3.27 2.86-3.27 1.74 0 2.75 1.58 2.75 3.11 0 .37-.13.57-.59.57zm-3.97-.79h3.5c0-.9-.52-1.96-1.69-1.96-1.3-.05-1.77 1-1.8 1.96zm6.56.39c0 1.08.46 2.35 1.75 2.35 1.3 0 1.75-1.27 1.75-2.35s-.45-2.35-1.75-2.35-1.75 1.27-1.75 2.35zm-.95 2.7V50.8c0-.35.2-.56.53-.56.32 0 .53.21.53.56v3.1h.02c.28-.39.87-.86 1.7-.86 1.73 0 2.73 1.58 2.73 3.27s-1 3.26-2.72 3.26c-.84 0-1.4-.3-1.7-.87h-.03v.3c0 .36-.2.57-.53.57-.32 0-.53-.21-.53-.56zm6.62 0v-5.4c0-.35.2-.57.53-.57.32 0 .53.22.53.57v.54h.02c.24-.5.83-1.1 1.44-1.1.37 0 .59.23.59.53 0 .3-.22.5-.66.58-.62.1-1.4.58-1.4 1.81v3.04c0 .35-.2.56-.52.56s-.53-.21-.53-.56zm3.79-1.98V53.6c0-.35.2-.57.53-.57.32 0 .52.22.52.57v3.38c0 1.1.48 1.67 1.48 1.67s1.47-.58 1.47-1.67v-3.38c0-.35.2-.57.53-.57s.53.22.53.57v3.42c0 1.87-1.25 2.54-2.53 2.54-1.29 0-2.53-.67-2.53-2.54zm7.51-3.42V59c0 .35-.2.56-.53.56-.32 0-.53-.21-.53-.56v-5.4c0-.35.2-.57.53-.57s.53.22.53.57zm-1.18-2.08c0-.36.3-.65.65-.65.36 0 .65.3.65.65 0 .36-.29.65-.65.65a.65.65 0 01-.65-.65zm2.57 7.48V50.8c0-.35.2-.56.53-.56s.53.21.53.56v4.5l2.3-1.93c.22-.2.42-.33.6-.33.28 0 .45.2.45.47 0 .16-.06.3-.27.46l-2.4 1.9 2.79 2.74c.2.2.25.34.25.54 0 .24-.22.42-.44.42-.26 0-.36-.07-.62-.32l-2.66-2.79v2.55c0 .35-.2.56-.53.56-.32 0-.53-.21-.53-.56zm5.75-.05c0-.34.28-.61.61-.61.34 0 .61.27.61.61 0 .34-.27.61-.6.61a.61.61 0 01-.62-.61z" fill="#FF8200"/></svg>