<svg width="151" height="41" viewBox="0 0 151 41" fill="none" xmlns="http://www.w3.org/2000/svg"><path fill="#FF8200" d="M0 .76h150.05v39.27H0z"/><path d="M21 23.13v-6.58c0-.54.38-.9.9-.9h1.96c2.64 0 4.14 1.68 4.14 4.3 0 2.47-1.6 4.07-4.02 4.07h-2.05c-.39 0-.93-.22-.93-.89zm1.77-5.87v5.13h1.19c1.51 0 2.2-1.11 2.2-2.53 0-1.5-.7-2.6-2.32-2.6h-1.07zm6.95 5.89v-4.52c0-.57.35-.94.85-.94s.84.37.84.94v4.52c0 .56-.35.94-.84.94-.5 0-.85-.38-.85-.94zm.85-8c.5 0 .95.43.95.93 0 .53-.42.97-.95.97a1 1 0 01-.96-.97c0-.49.45-.93.96-.93zm2.7 8v-4.62c0-.56.45-.84.87-.84.45 0 .82.16.82.7H35c.31-.47.66-.7 1.18-.7.42 0 .83.3.83.9 0 .56-.5.6-1.01.83-.5.23-1.03.46-1.03 1.13v2.6c0 .56-.35.94-.84.94-.5 0-.85-.38-.85-.94zm9.65-1.7h-3.61c.12.84.81 1.23 1.6 1.23.87 0 1.47-.69 1.92-.69.36 0 .7.37.7.73 0 .73-1.52 1.44-2.77 1.44-1.91 0-3.18-1.39-3.18-3.26 0-1.72 1.25-3.28 3.04-3.28 1.83 0 3.04 1.67 3.04 3.08 0 .5-.22.75-.74.75zm-3.65-1.13h2.7c-.1-.74-.57-1.3-1.35-1.3-.76 0-1.26.59-1.35 1.3zm10.8-1.63c0 .35-.25.8-.65.8-.43 0-.8-.32-1.35-.32-.96 0-1.42.86-1.42 1.73 0 .83.5 1.7 1.42 1.7.43 0 1.06-.35 1.26-.35.4 0 .73.34.73.74 0 .87-1.46 1.17-2.07 1.17-1.82 0-3.03-1.5-3.03-3.26 0-1.72 1.24-3.28 3.03-3.28.67 0 2.07.24 2.07 1.07zM52 23.15v-3.91h-.37c-.46 0-.75-.28-.75-.74 0-.42.32-.74.75-.74H52v-1.01c0-.57.36-.94.85-.94.5 0 .85.37.85.94v1h.48c.43 0 .81.2.81.75 0 .53-.38.74-.81.74h-.48v3.9c0 .57-.36.95-.85.95-.5 0-.85-.38-.85-.94zm13.89-4.36V23c0 .43 0 1.1-.81 1.1-.5 0-.7-.27-.81-.72-.44.52-.97.79-1.62.79-1.58 0-2.8-1.36-2.8-3.26 0-1.86 1.25-3.28 2.8-3.28.63 0 1.24.24 1.62.77a.8.8 0 01.8-.7c.82 0 .82.67.82 1.1zm-4.34 2.1c0 .82.42 1.71 1.34 1.71.88 0 1.3-.89 1.3-1.7 0-.81-.4-1.73-1.3-1.73-.93 0-1.34.92-1.34 1.73zm12.04-2.1V23c0 .43 0 1.1-.82 1.1-.49 0-.69-.27-.8-.72-.44.52-.97.79-1.62.79-1.59 0-2.8-1.36-2.8-3.26 0-1.86 1.25-3.28 2.8-3.28.62 0 1.24.24 1.61.77a.8.8 0 01.81-.7c.82 0 .82.67.82 1.1zm-4.35 2.1c0 .82.43 1.71 1.35 1.71.88 0 1.3-.89 1.3-1.7 0-.81-.41-1.73-1.3-1.73-.93 0-1.35.92-1.35 1.73zm6.25 2.26v-4.52c0-.57.36-.94.85-.94.44 0 .72.23.78.62.33-.46.83-.7 1.63-.7 1.33 0 2.32.85 2.32 2.29v3.25c0 .56-.35.94-.85.94s-.84-.38-.84-.94v-2.96c0-.78-.5-1.16-1.11-1.16-.7 0-1.08.5-1.08 1.16v2.96c0 .56-.35.94-.85.94s-.85-.38-.85-.94zm17.36-7.25v7.25c0 .56-.35.94-.85.94-.47 0-.74-.26-.85-.7-.31.5-.97.77-1.55.77-1.7 0-2.79-1.59-2.79-3.19 0-1.65.91-3.35 2.73-3.35.6 0 1.17.2 1.61.59V15.9c0-.57.36-.94.85-.94.5 0 .85.37.85.94zm-1.7 4.94c0-.82-.42-1.67-1.32-1.67-.89 0-1.32.93-1.32 1.73 0 .79.43 1.7 1.32 1.7.92 0 1.32-.94 1.32-1.76zm8.58.61h-3.6c.1.84.8 1.23 1.6 1.23.86 0 1.46-.69 1.9-.69.37 0 .7.37.7.73 0 .73-1.5 1.44-2.76 1.44-1.9 0-3.18-1.39-3.18-3.26 0-1.72 1.25-3.28 3.04-3.28 1.83 0 3.04 1.67 3.04 3.08 0 .5-.22.75-.74.75zm-3.64-1.13h2.69c-.1-.74-.56-1.3-1.35-1.3-.76 0-1.26.59-1.34 1.3zm14.27-1.48c0 .39-.29.75-.69.75-.32 0-.97-.5-1.52-.5-.3 0-.57.15-.57.48 0 .79 2.94.67 2.94 2.6 0 1.13-.96 1.99-2.41 1.99-.96 0-2.37-.54-2.37-1.3 0-.27.26-.76.73-.76.66 0 .95.58 1.75.58.52 0 .67-.17.67-.49 0-.77-2.94-.66-2.94-2.6 0-1.17.95-1.97 2.3-1.97.83 0 2.11.39 2.11 1.22zm1.67 4.3V15.9c0-.57.36-.94.85-.94.5 0 .85.37.85.94v7.25c0 .56-.36.94-.85.94-.5 0-.85-.38-.85-.94zm9.36-4.35V23c0 .43 0 1.1-.8 1.1-.5 0-.7-.27-.82-.72-.44.52-.97.79-1.61.79-1.6 0-2.8-1.36-2.8-3.26 0-1.86 1.24-3.28 2.8-3.28.62 0 1.23.24 1.6.77a.8.8 0 01.82-.7c.81 0 .81.67.81 1.1zm-4.34 2.1c0 .82.42 1.71 1.34 1.71.89 0 1.3-.89 1.3-1.7 0-.81-.4-1.73-1.3-1.73-.93 0-1.34.92-1.34 1.73zm12.04-2.26v4.9c0 2.03-1.33 3.05-3.26 3.05-.7 0-2.67-.34-2.67-1.27 0-.32.35-.74.68-.74.54 0 1.14.53 2.12.53.82 0 1.43-.48 1.43-1.34v-.4h-.02c-.35.52-.93.8-1.7.8-1.78 0-2.62-1.57-2.62-3.25 0-1.7 1.09-3.3 2.8-3.3.57 0 1.23.27 1.54.78.11-.44.38-.7.85-.7.5 0 .85.37.85.94zm-1.7 2.3c0-.82-.4-1.76-1.33-1.76-.88 0-1.31.92-1.31 1.7 0 .91.43 1.73 1.31 1.73.91 0 1.33-.84 1.33-1.67z" fill="#fff"/></svg>