<svg width="728" height="90" viewBox="0 0 728 90" fill="none" xmlns="http://www.w3.org/2000/svg"><g clip-path="url(#clip0_121_51)"><path fill="#fff" d="M0-137h728v314.5H0z"/><path d="M137.55 204.03a7.33 7.33 0 10-8.61-5.78 7.04 7.04 0 008.61 5.78zm-23.67-25.26a6.7 6.7 0 008.14 3.38l2.4-.47a6.7 6.7 0 003.38-8.15l-.47-2.4a6.7 6.7 0 00-8.15-3.38l-2.4.48a6.7 6.7 0 00-3.37 8.14l.47 2.4zM97.4 152.09c-1.2.23-3.37 1.9-4.56 2.14a9.33 9.33 0 00-1.22 6.48 7.36 7.36 0 002.15 4.56c1.67 2.16 4.07 1.7 6.47 1.22a7.35 7.35 0 004.56-2.15 6.52 6.52 0 002.66-5.5 7.35 7.35 0 00-2.14-4.58 10.57 10.57 0 00-7.9-2.16l-.02-.01zM-8.17 261.42a7.05 7.05 0 008.61 5.78 7.88 7.88 0 005.78-8.62 7.05 7.05 0 00-8.62-5.78 7.88 7.88 0 00-5.77 8.62zm27.74 26.94a6.7 6.7 0 003.38-8.14l-.47-2.4a6.7 6.7 0 00-8.15-3.38l-2.4.47a6.7 6.7 0 00-3.37 8.14l.47 2.4a6.7 6.7 0 008.14 3.39l2.4-.48zm9.32 9.39a7.36 7.36 0 002.15 4.57c1.67 2.16 4.07 1.68 6.47 1.21a7.35 7.35 0 004.56-2.14c2.16-1.67 1.69-4.08 1.22-6.48a7.36 7.36 0 00-2.15-4.56c-1.67-2.16-4.07-1.69-6.47-1.22a9.31 9.31 0 00-4.33 3.35 6.35 6.35 0 00-1.44 5.27zm34.98 13.07a10.58 10.58 0 006.48-5.03 4.5 4.5 0 00.5-3.84 10.58 10.58 0 00-5.03-6.49 4.5 4.5 0 00-3.84-.48 10.58 10.58 0 00-6.49 5.02 4.49 4.49 0 00-.48 3.84 10.58 10.58 0 005.02 6.49 4.5 4.5 0 003.84.49zm24.47-2.34l1.24-.24a6.85 6.85 0 006.01-7.42l-.23-1.2a6.85 6.85 0 00-7.42-6.02l-1.2.24a6.85 6.85 0 00-6.01 7.42l.23 1.2a7.75 7.75 0 007.38 6.01v.01zm30.75-21.01l-.24-1.2a7.75 7.75 0 00-8.38-4.58l-1.2.23a7.75 7.75 0 00-4.58 8.38l.24 1.2a7.75 7.75 0 008.38 4.58l1.2-.23a6.85 6.85 0 004.58-8.4v.02zm3.16-15.59a4.48 4.48 0 001.9 3.37 7.4 7.4 0 007.91 2.19 4.5 4.5 0 003.37-1.9 7.38 7.38 0 002.19-7.92 4.5 4.5 0 00-1.91-3.37 7.38 7.38 0 00-7.91-2.18 4.5 4.5 0 00-3.36 1.9 10.59 10.59 0 00-2.18 7.9l-.01.01zm20.2-17.69a9.32 9.32 0 005.52-3.58c.68-1.6.76-3.38.25-5.04a9.32 9.32 0 00-3.58-5.53 7.35 7.35 0 00-5.03-.25 9.32 9.32 0 00-5.53 3.58 7.36 7.36 0 00-.25 5.04 9.32 9.32 0 003.58 5.53c1.44.95 2.64.72 5.04.24v.01zm-6.86-34.76l.48 2.4a8.26 8.26 0 006.22 6.25l2.4-.48a8.26 8.26 0 006.24-6.22l-.47-2.39a8.26 8.26 0 00-6.22-6.25l-2.4.47a8.26 8.26 0 00-6.25 6.22zm13.59-57.59a9.78 9.78 0 1011.5 7.72 10.53 10.53 0 00-11.5-7.72zm7.03-27.56a9.78 9.78 0 001.87 19.4 9.78 9.78 0 009.62-11.69 9.02 9.02 0 00-11.5-7.71h.01zm-20.4 10.25l-.72-3.6a9.69 9.69 0 00-10.78-4.11l-3.6.7a15.1 15.1 0 00-2.91 10.56l.7 3.6a9.2 9.2 0 009.58 4.35l3.57-.7-1.67-2.16 1.43.96a9.2 9.2 0 004.39-9.6zM114.75 120l.71 3.6a15.1 15.1 0 0010.55 2.92l3.61-.72a9.2 9.2 0 004.34-9.58l-.7-3.6a12.47 12.47 0 00-10.79-4.11l-3.6.7a9.7 9.7 0 00-4.1 10.8l-.02-.01zm-10.58 9.56a9.33 9.33 0 00-3.58-5.53 8.72 8.72 0 00-7.9-2.18 9.32 9.32 0 00-5.53 3.58 10.57 10.57 0 00-2.19 7.9 9.33 9.33 0 003.58 5.54 10.56 10.56 0 007.91 2.18c2.4-.47 3.37-1.9 5.53-3.58a10.58 10.58 0 002.18-7.9zM89.16 97.62a10.57 10.57 0 00-7.9-2.19 9.32 9.32 0 00-5.53 3.58 10.58 10.58 0 00-2.19 7.9c.48 2.4 1.91 3.37 3.58 5.53a10.56 10.56 0 007.91 2.2 9.32 9.32 0 005.53-3.59 10.57 10.57 0 002.18-7.9c-1.67-2.17-1.91-3.4-3.58-5.53zM-13.06 293.55a10.52 10.52 0 007.7-11.5 10.38 10.38 0 00-10.28-7.95 9.65 9.65 0 00-7.7 11.5 8.14 8.14 0 0010.28 7.95zm-6.8 28.77a9.8 9.8 0 10-11.49-7.71 9.65 9.65 0 0011.5 7.7zM.55 312.06l.71 3.6a9.2 9.2 0 009.58 4.35l3.6-.7a9.2 9.2 0 004.35-9.59l-.71-3.6a9.2 9.2 0 00-9.58-4.35l-3.6.71a8.15 8.15 0 00-4.34 9.58zm21.03 24.53l-.7-3.6a9.21 9.21 0 00-9.58-4.35l-3.6.7a9.2 9.2 0 00-4.35 9.59l.7 3.6a9.2 9.2 0 009.59 4.35l3.62-.72a9.2 9.2 0 004.35-9.57h-.03zm10.6-9.56a9.32 9.32 0 003.57 5.53 10.55 10.55 0 007.9 2.19 9.32 9.32 0 005.54-3.58 10.57 10.57 0 002.18-7.91 9.33 9.33 0 00-3.58-5.53 13.2 13.2 0 00-9.1-1.95 9.32 9.32 0 00-5.53 3.58l1.43.96-1.43-.96c-2.16 1.67-1.45 5.27-.98 7.67zm11.43 26.42a9.33 9.33 0 003.58 5.53 10.58 10.58 0 007.91 2.19 9.32 9.32 0 005.53-3.58 10.57 10.57 0 002.18-7.91 9.32 9.32 0 00-3.58-5.53 10.58 10.58 0 00-7.9-2.19 9.32 9.32 0 00-5.53 3.58 7.39 7.39 0 00-2.18 7.9zm40.6-21.71c.67-1.6.76-3.39.24-5.04a9.24 9.24 0 00-6.45-7.45 7.35 7.35 0 00-5.04-.26 9.22 9.22 0 00-7.45 6.46 7.36 7.36 0 00-.25 5.04 9.23 9.23 0 006.46 7.45c1.6.68 3.38.76 5.03.25a10.25 10.25 0 007.45-6.45zm21.29 19.5c.67-1.6.76-3.4.25-5.05a9.24 9.24 0 00-6.46-7.45 7.35 7.35 0 00-5.04-.25 9.22 9.22 0 00-7.45 6.45 7.36 7.36 0 00-.25 5.04 9.23 9.23 0 006.46 7.46c1.6.67 3.38.76 5.04.25a9.23 9.23 0 007.44-6.47v.01zm13.29-33.8a10.67 10.67 0 00-9.1-8.19l-1.2.24a10.65 10.65 0 00-8.17 9.1l.23 1.19a10.65 10.65 0 009.06 8.14l1.2-.23a10.65 10.65 0 008.19-9.1l-.21-1.15zm7.87 14.65l.24 1.2a10.66 10.66 0 009.09 8.19l1.2-.24a10.65 10.65 0 008.18-9.09l-.24-1.2a10.66 10.66 0 00-9.09-8.19l-1.2.24c-4.82.9-9.14 4.3-8.19 9.1h.01zm9.47-40.51l-1.2.23a9.32 9.32 0 00-5.3 11.03l.23 1.2a9.33 9.33 0 0011.02 5.3l1.2-.23a10.65 10.65 0 005.3-11.03l-.23-1.2a9.33 9.33 0 00-11.04-5.3h.02zm32.55 19.77l1.2-.24a9.19 9.19 0 006.73-10.05l-.23-1.2a9.32 9.32 0 00-11.03-5.31l-1.18.23a8.38 8.38 0 00-6.74 10.06l.23 1.2a10.26 10.26 0 0011.01 5.3zm-.61-41.03a7.35 7.35 0 00-2.15-4.56 10.25 10.25 0 00-9.34-3.15 7.35 7.35 0 00-4.56 2.14 10.25 10.25 0 00-3.15 9.35 7.36 7.36 0 002.14 4.56 10.27 10.27 0 009.37 3.15 7.35 7.35 0 004.56-2.14 10.6 10.6 0 003.15-9.35h-.02zm26.17-12.63a10.27 10.27 0 00-9.34-3.15 7.35 7.35 0 00-4.57 2.14 10.25 10.25 0 00-3.12 9.35 7.35 7.35 0 002.15 4.57l2.16-1.67-2.16 1.67a12.36 12.36 0 009.34 3.15 7.35 7.35 0 004.56-2.15 10.25 10.25 0 003.15-9.34c-.23-1.22-1.94-3.37-2.17-4.57zm-16.73-21.64a10.59 10.59 0 00-5.02-6.5 5.38 5.38 0 00-6.24 0 10.59 10.59 0 00-6.48 5.02 9.33 9.33 0 00-1.22 6.47 10.58 10.58 0 005.02 6.49 9.32 9.32 0 006.48 1.21 10.54 10.54 0 006.48-5.02 17.4 17.4 0 00.98-7.67zm6.26-18.72a9.33 9.33 0 00-1.22 6.48 10.58 10.58 0 005.02 6.48 9.32 9.32 0 006.48 1.21 10.55 10.55 0 006.48-5.02 9.32 9.32 0 001.22-6.47 10.6 10.6 0 00-5.03-6.5 9.32 9.32 0 00-6.47-1.2 8.7 8.7 0 00-6.48 5.01v.01zm-28.02-15.67l.71 3.6a9.2 9.2 0 007.66 7.22l.72-2.63-.72 2.63 3.63-.71a9.2 9.2 0 007.2-7.66l-.7-3.6a9.2 9.2 0 00-7.66-7.22l-3.57.7a9.2 9.2 0 00-7.24 7.7l-.03-.03zm27.38-12.88a9.2 9.2 0 007.21-7.65l-.7-3.6a9.2 9.2 0 00-7.66-7.22l-3.54.7a9.2 9.2 0 00-7.21 7.65l.7 3.6a9.2 9.2 0 007.66 7.22l3.57-.7h-.03zm-37.9-72.29a12.24 12.24 0 109.63-14.36 14.25 14.25 0 00-9.63 14.36zm-43.34-23.87a4.5 4.5 0 001.9 3.37 10.7 10.7 0 0012.22 5.07 4.49 4.49 0 003.37-1.91l-2.87-1.93 3.11 3.14a12.39 12.39 0 005.07-12.22 4.5 4.5 0 00-1.91-3.37 10.7 10.7 0 00-12.22-5.07 4.48 4.48 0 00-3.37 1.91 10.25 10.25 0 00-5.3 11zM74.82 81.75A17.4 17.4 0 0071 75.02a13.2 13.2 0 00-9.1-1.95c-2.5.75-4.8 2.05-6.73 3.81A13.21 13.21 0 0053.22 86a17.4 17.4 0 003.82 6.73 13.2 13.2 0 009.1 1.95c2.5-.75 4.8-2.06 6.73-3.82l-4.32-2.9 3.11 3.14a9.23 9.23 0 003.16-9.34zm-84.9 258.59a12.07 12.07 0 00-13.16-9.87 10.97 10.97 0 00-8.67 12.93 12.26 12.26 0 0014.41 9.58 10.79 10.79 0 007.43-12.65v.01zm44.33 22.44a4.5 4.5 0 00-1.9-3.37 10.7 10.7 0 00-12.23-5.07 4.48 4.48 0 00-3.36 1.9 10.7 10.7 0 00-5.07 12.23 4.5 4.5 0 001.9 3.36 10.7 10.7 0 0012.23 5.08 4.5 4.5 0 003.36-1.91 10.7 10.7 0 005.05-12.26l.02.04zm27.3 12.07a17.4 17.4 0 003.82 6.73 13.2 13.2 0 009.1 1.95c2.5-.75 4.8-2.06 6.73-3.82a13.22 13.22 0 001.95-9.1 17.4 17.4 0 00-3.82-6.74 13.2 13.2 0 00-9.1-1.95c-2.5.75-4.8 2.06-6.72 3.82a11.1 11.1 0 00-1.95 9.1v.01zm63.85-23.8a9.16 9.16 0 00-6.24-.02 12.46 12.46 0 00-8.41 7.9 7.35 7.35 0 00-.26 5.03 12.48 12.48 0 007.9 8.42c2 .74 4.22.74 6.23.02a12.47 12.47 0 008.42-7.9c.73-2.01.74-4.22.02-6.23a12.66 12.66 0 00-7.66-7.22zm26.9-15.28l.47 2.4a10 10 0 0011.73 8.9l2.4-.46a9.99 9.99 0 008.9-11.77l-.48-2.4a9.99 9.99 0 00-11.73-8.9l-2.4.47a12.99 12.99 0 00-8.9 11.73v.03zm53.83-43.02a11.6 11.6 0 00-12.69-7.48l-2.4.47a11.6 11.6 0 00-7.44 12.7l.47 2.4 4.57-2.15-4.57 2.14a11.6 11.6 0 0012.7 7.48l2.36-.47a11.6 11.6 0 007.47-12.7l-.47-2.4zm2.8-55.41a11.02 11.02 0 00-5.77 2.38 12.47 12.47 0 00-4.1 10.79 11.04 11.04 0 002.38 5.76l3.13-3.13-3.14 3.11a12.47 12.47 0 0010.77 4.13 11.03 11.03 0 005.77-2.38 12.48 12.48 0 004.1-10.79 11.04 11.04 0 00-2.38-5.76 12.48 12.48 0 00-10.76-4.11zM198 200.84a11.1 11.1 0 005.26 7.69l1.72-4.08-1.69 4.08c2.45.9 5.08 1.23 7.67.97a11.09 11.09 0 007.69-5.25c.88-2.46 1.2-5.07.93-7.67a11.11 11.11 0 00-5.26-7.68 17.38 17.38 0 00-7.67-.98 11.1 11.1 0 00-7.68 5.26 17.4 17.4 0 00-.97 7.66zm-18.8-51.15c.24 1.2-.72 2.64-.49 3.84a11.76 11.76 0 009.33 9.39c1.2-.24 2.63.73 3.84.49a10.69 10.69 0 009.38-9.33c-.24-1.2.73-2.63.49-3.84a10.7 10.7 0 00-9.33-9.39c-1.2.24-2.63-.72-3.84-.48a12.39 12.39 0 00-9.39 9.32h.01zm-42.28-62.73a12.24 12.24 0 109.64-14.35 13.15 13.15 0 00-9.64 14.35zM83.25 67.61a4.5 4.5 0 001.9 3.37 10.7 10.7 0 0012.23 5.07 4.5 4.5 0 003.37-1.9l-1.68-2.17 1.91 3.37a10.7 10.7 0 005.07-12.22 4.5 4.5 0 00-1.9-3.37 9.32 9.32 0 00-11.03-5.3 4.5 4.5 0 00-3.37 1.9 10.37 10.37 0 00-6.5 11.25zM26.17 68.9A17.4 17.4 0 0030 75.62a13.2 13.2 0 009.1 1.95c2.5-.75 4.8-2.06 6.73-3.82a13.21 13.21 0 001.94-9.1 17.4 17.4 0 00-3.81-6.73 6.7 6.7 0 00-8.16-3.4c-2.5.76-4.8 2.06-6.73 3.82a11.12 11.12 0 00-2.89 10.55zM-1.76 369.83a12.23 12.23 0 10-9.58 14.4 13.1 13.1 0 009.58-14.4zm54.63 17.9a4.5 4.5 0 00-1.91-3.36 10.69 10.69 0 00-12.22-5.07 4.5 4.5 0 00-3.37 1.9 10.7 10.7 0 00-5.06 12.23 4.5 4.5 0 001.9 3.37 10.7 10.7 0 0012.22 5.07 4.48 4.48 0 003.38-1.9 12.38 12.38 0 005.06-12.2v-.03zm54.4 10.47a13.2 13.2 0 001.95-9.1c-.75-2.5-2.05-4.8-3.81-6.73a13.2 13.2 0 00-9.1-1.95c-2.5.75-4.8 2.06-6.73 3.82a13.21 13.21 0 00-1.95 9.1c.75 2.5 2.06 4.8 3.82 6.73a13.2 13.2 0 009.1 1.95 17.39 17.39 0 006.77-3.78l-.04-.04zm33.68-31.57c-.6 2.04-.6 4.2-.01 6.24a10.9 10.9 0 007.9 8.42c2.02.6 4.19.61 6.22.02a10.88 10.88 0 008.42-7.9c.6-2.03.61-4.2.02-6.23a10.88 10.88 0 00-7.9-8.43c-2.03-.6-4.2-.6-6.23-.01a10.06 10.06 0 00-8.43 7.94l.01-.05zm42.04-33.2l.47 2.39a11.91 11.91 0 0011.97 10.1l2.4-.46a11.9 11.9 0 0010.1-11.97l-.47-2.4a11.93 11.93 0 00-11.97-10.11l-2.4.47a11.91 11.91 0 00-10.1 11.97zm29.15-48.14l.47 2.4 4.56-2.1-4.57 2.14a11.91 11.91 0 0013.9 7.24l2.41-.48a11.91 11.91 0 007.23-13.89l-.48-2.4a11.92 11.92 0 00-13.89-7.24l-2.4.48a11.91 11.91 0 00-7.22 13.89v-.04zm8.8-56.58a11.03 11.03 0 002.38 5.76l3.12-3.07-3.13 3.1a12.48 12.48 0 0010.78 4.11 11.03 11.03 0 005.77-2.38 13.05 13.05 0 005.07-12.22 11.04 11.04 0 00-2.38-5.77 12.48 12.48 0 00-10.78-4.1c-2.11.22-4.11 1.04-5.77 2.37a14.8 14.8 0 00-5.06 12.23v-.03zm-9.92-56.65a9.53 9.53 0 005.26 7.69l1.69-4.08-1.45 5.28a9 9 0 007.67.98 9.5 9.5 0 007.68-5.26 11.1 11.1 0 001.95-9.07 9.52 9.52 0 00-5.26-7.69 9 9 0 00-7.67-.97 9.51 9.51 0 00-7.68 5.25 7.33 7.33 0 00-2.19 7.91v-.04zm-29.1-52.83c.23 1.2-.73 2.63-.5 3.84a10.7 10.7 0 009.37 9.38l1.69-4.08-.5 3.84c1.2-.23 2.64.73 3.85.5a10.7 10.7 0 009.32-9.32l-.94-4.8a10.7 10.7 0 00-9.33-9.4c-1.2.24-2.63-.72-3.84-.48a13.54 13.54 0 00-9.12 10.52zM72.49 145.8a10.55 10.55 0 00-6.49 5.02 4.49 4.49 0 00-.49 3.84 10.58 10.58 0 005.02 6.49 4.48 4.48 0 003.84.49 10.55 10.55 0 006.49-5.03 4.5 4.5 0 00.48-3.84 10.58 10.58 0 00-5.02-6.48 4.49 4.49 0 00-3.83-.5zM48 148.13l-1.2.24a6.85 6.85 0 00-6 7.41l.23 1.2a6.86 6.86 0 007.41 6.02l1.2-.24a6.85 6.85 0 006.02-7.42l-.23-1.2a6.86 6.86 0 00-7.43-6.01zm-30.98 19.85l.24 1.2a7.75 7.75 0 008.38 4.58l1.2-.23a7.74 7.74 0 004.58-8.38l-.23-1.2a7.75 7.75 0 00-8.38-4.58l-1.2.23a7.75 7.75 0 00-4.58 8.38zm-18.75 18.66A4.5 4.5 0 00.18 190a7.39 7.39 0 007.92 2.18 4.48 4.48 0 003.36-1.9 7.4 7.4 0 002.19-7.91 4.5 4.5 0 00-1.91-3.37 7.4 7.4 0 00-7.9-2.19 4.5 4.5 0 00-3.38 1.9 10.57 10.57 0 00-2.2 7.88l.02.04zm-10.14 24.43a9.32 9.32 0 003.58 5.53c1.6.68 3.38.77 5.04.25a9.32 9.32 0 005.53-3.58c.67-1.6.76-3.38.25-5.03a9.32 9.32 0 00-3.58-5.53 7.35 7.35 0 00-5.04-.26 9.32 9.32 0 00-5.53 3.58c-.97 1.4-.74 2.61-.26 5l.01.04zm-2.94 23.02l.47 2.4a8.26 8.26 0 006.22 6.25l2.39-.47a8.26 8.26 0 006.25-6.22l-.47-2.4a8.27 8.27 0 00-6.22-6.25l-2.4.47a7.6 7.6 0 00-6.26 6.18l.02.04zM52.18 124.9c-.96 1.43-.72 2.63-.25 5.04a9.24 9.24 0 006.46 7.45l3.6-.71a9.22 9.22 0 007.45-6.46c.67-1.6.76-3.38.25-5.04a9.24 9.24 0 00-6.46-7.45 7.35 7.35 0 00-5.03-.25c-2.2 1.63-5.54 3.56-6.05 7.38l.03.04zm-21.55-20.74a7.36 7.36 0 00-.25 5.04 9.24 9.24 0 006.46 7.45c1.6.68 3.38.77 5.04.25a9.22 9.22 0 007.44-6.45c.68-1.6.77-3.39.26-5.04a9.23 9.23 0 00-6.46-7.45 7.35 7.35 0 00-5.04-.26 12.37 12.37 0 00-7.45 6.46zm-13.29 33.79a10.66 10.66 0 009.1 8.19l1.2-.24a10.65 10.65 0 008.18-9.1l-.23-1.2a10.66 10.66 0 00-9.1-8.19l-1.2.24a10.65 10.65 0 00-8.18 9.09l.24 1.2v.01zm-7.63-13.45l-.24-1.21a10.66 10.66 0 00-9.1-8.19l-1.2.24a10.65 10.65 0 00-8.18 9.1l.24 1.2a10.65 10.65 0 009.1 8.19l1.23-.25a9.32 9.32 0 008.18-9.09h-.03zM-.96 165.26l1.2-.24c5.77-2.38 7.46-6.46 6.75-10.05l-.24-1.21a9.33 9.33 0 00-11.02-5.3l-1.2.23a9.32 9.32 0 00-5.3 11.02l.23 1.2c.71 3.6 5.99 5.05 9.58 4.34zm-21.3-13.28l-.24-1.19a9.32 9.32 0 00-11.02-5.3l-1.2.23a9.32 9.32 0 00-5.3 11.02l.24 1.2a9.32 9.32 0 0011.02 5.3l1.2-.23a9.32 9.32 0 005.3-11.04zm-9.45 34.27a7.36 7.36 0 002.15 4.57 10.25 10.25 0 009.34 3.15 7.35 7.35 0 004.56-2.15 10.26 10.26 0 003.15-9.34 7.36 7.36 0 00-2.15-4.57 10.26 10.26 0 00-9.34-3.15 7.35 7.35 0 00-4.56 2.15 9.22 9.22 0 00-3.14 9.37v-.03zm-28.32 8.07a7.36 7.36 0 002.14 4.59 10.25 10.25 0 009.35 3.15 7.35 7.35 0 004.56-2.15 10.25 10.25 0 003.15-9.34 7.36 7.36 0 00-2.15-4.57 10.25 10.25 0 00-9.34-3.15 7.36 7.36 0 00-4.56 2.15 12.38 12.38 0 00-3.15 9.35v-.03zm18.88 26.24a10.57 10.57 0 005.02 6.48 9.32 9.32 0 006.47 1.22 10.55 10.55 0 006.49-5.02 9.33 9.33 0 001.21-6.48 10.58 10.58 0 00-5.02-6.48 9.32 9.32 0 00-6.47-1.22 10.57 10.57 0 00-6.49 5.02 9.32 9.32 0 00-1.21 6.47zm-6.3 18.7a9.33 9.33 0 001.22-6.48 10.58 10.58 0 00-5.02-6.49 9.32 9.32 0 00-6.47-1.21 10.55 10.55 0 00-6.49 5.02 9.32 9.32 0 00-1.21 6.47 10.57 10.57 0 005.02 6.5 9.32 9.32 0 006.47 1.2 8.71 8.71 0 006.5-5.03l-.01.01zm28.02 15.66l-.7-3.58a9.2 9.2 0 00-7.66-7.22l-3.6.71a9.2 9.2 0 00-7.21 7.66l.7 3.6a9.2 9.2 0 007.66 7.22l3.6-.71a12.66 12.66 0 007.22-7.69v.01zm-35.8 20.78l.7 3.6a9.2 9.2 0 007.66 7.21l3.6-.7a9.2 9.2 0 007.22-7.66l-.7-3.58a9.2 9.2 0 00-7.66-7.22l-3.6.71a9.2 9.2 0 00-7.2 7.62l-.02.01zM10.96 105.5c2.03.6 4.2.61 6.23.02a12.47 12.47 0 008.42-7.9c.6-2.03.61-4.2.02-6.23a12.48 12.48 0 00-7.9-8.43 9.16 9.16 0 00-6.23-.01 12.47 12.47 0 00-8.42 7.89 9.17 9.17 0 00-.01 6.24 12.47 12.47 0 007.89 8.42zm-26.9 15.28l-.47-2.36a10 10 0 00-11.73-8.91l-2.4.47a9.99 9.99 0 00-8.9 11.72l.46 2.4A10 10 0 00-27.25 133l2.4-.48a14.91 14.91 0 008.91-11.7v-.03zm-53.85 43.03a11.6 11.6 0 0012.7 7.47l2.4-.47a11.6 11.6 0 007.46-12.7l-.46-2.36a11.92 11.92 0 00-13.9-7.25l-2.39.48A12.12 12.12 0 00-70 162.64l.24 1.2-.02-.02zm-2.79 55.4a11.02 11.02 0 005.76-2.38 12.47 12.47 0 004.1-10.79 11.03 11.03 0 00-2.37-5.73 12.47 12.47 0 00-10.79-4.1 11.02 11.02 0 00-5.76 2.38 12.47 12.47 0 00-4.1 10.78 11.04 11.04 0 002.37 5.77 10.9 10.9 0 0010.8 4.1l-.01-.03zm10.94 36.5a11.1 11.1 0 00-5.26-7.7 8.99 8.99 0 00-7.67-.97 11.09 11.09 0 00-7.69 5.26 17.4 17.4 0 00-.97 7.67 11.11 11.11 0 005.26 7.69c2.45.9 5.07 1.23 7.66.97a11.1 11.1 0 007.69-5.25c.9-2.46 1.23-5.08.98-7.68zm18.56 49.94c-.24-1.2.72-2.63.49-3.84a10.7 10.7 0 00-9.33-9.39c-1.2.24-2.63-.72-3.84-.48a10.69 10.69 0 00-9.38 9.32c.24 1.2-.73 2.64-.49 3.84a10.7 10.7 0 009.33 9.39c1.2-.24 2.63.73 3.84.49 5.04.3 7.94-4.02 9.39-9.29l-.01-.04zm38.5-215.74c.6-2.04.61-4.2.02-6.24a10.9 10.9 0 00-7.9-8.42c-2.03-.6-4.2-.61-6.23-.02a10.88 10.88 0 00-8.42 7.9c-.6 2.03-.61 4.2-.01 6.23a10.9 10.9 0 007.89 8.43c2.03.6 4.2.6 6.23.01a12.47 12.47 0 008.42-7.9zm-43.26 33.45l-.47-2.38a11.92 11.92 0 00-11.97-10.1l-2.4.46a11.91 11.91 0 00-10.1 11.97l.47 2.4a11.92 11.92 0 0011.97 10.11l2.4-.47c7.19-1.44 11.28-5.99 10.1-11.99zm-27.96 47.9l-.47-2.4a11.92 11.92 0 00-13.89-7.24l-2.41.48a11.91 11.91 0 00-7.24 13.9l.47 2.4a11.92 11.92 0 0013.9 7.23l2.4-.47a12.88 12.88 0 007.25-13.9zm-8.8 56.58a11.03 11.03 0 00-2.37-5.76 12.47 12.47 0 00-10.79-4.11 11.02 11.02 0 00-5.76 2.38 12.47 12.47 0 00-4.1 10.78 11.04 11.04 0 002.37 5.77 12.49 12.49 0 0010.79 4.1 11.03 11.03 0 005.76-2.37 12.48 12.48 0 004.12-10.78l-.01-.01zm9.69 55.44a9.52 9.52 0 00-5.26-7.68 8.99 8.99 0 00-7.67-.98 9.5 9.5 0 00-7.68 5.26 8.98 8.98 0 00-.98 7.67 9.53 9.53 0 005.26 7.69 9 9 0 007.67.97 9.52 9.52 0 007.68-5.26c1.3-2.33 1.66-5.08.98-7.67zm29.35 54.09c-.23-1.2.73-2.63.49-3.84a10.7 10.7 0 00-9.33-9.39c-1.2.24-2.63-.72-3.84-.48a10.69 10.69 0 00-9.38 9.32c.24 1.2-.72 2.63-.48 3.84a10.7 10.7 0 009.32 9.39c1.2-.24 2.63.72 3.84.49a10.69 10.69 0 009.39-9.35v.02z" fill="#B0ADAB"/><path fill="url(#paint0_linear_121_51)" fill-opacity=".12" d="M0-137h728v314.5H0z"/></g><defs><linearGradient id="paint0_linear_121_51" x1="364" y1="-137" x2="364" y2="177.5" gradientUnits="userSpaceOnUse"><stop offset=".26" stop-color="#FF8200" stop-opacity="0"/><stop offset=".85" stop-color="#FF8200"/></linearGradient><clipPath id="clip0_121_51"><path fill="#fff" transform="translate(0 -137)" d="M0 0h728v314.5H0z"/></clipPath></defs></svg>